<mxfile host="app.diagrams.net" modified="2020-10-22T13:30:47.598Z" agent="5.0 (Windows NT 10.0; Win64; x64) AppleWebKit/537.36 (KHTML, like Gecko) Chrome/86.0.4240.75 Safari/537.36" etag="_GLC3vF1qqMzrpP5_ovl" version="13.8.1" type="github">
  <diagram id="-By3hi1CVI8gYYkuv8RL" name="Page-1">
    <mxGraphModel dx="3460" dy="1853" grid="1" gridSize="10" guides="1" tooltips="1" connect="1" arrows="1" fold="1" page="1" pageScale="1" pageWidth="2000" pageHeight="4000" math="0" shadow="0">
      <root>
        <mxCell id="0" />
        <mxCell id="1" parent="0" />
        <mxCell id="gDX20T1RS522bf6tZgBw-20" style="edgeStyle=orthogonalEdgeStyle;rounded=0;orthogonalLoop=1;jettySize=auto;html=1;" parent="1" source="gDX20T1RS522bf6tZgBw-1" target="gDX20T1RS522bf6tZgBw-8" edge="1">
          <mxGeometry relative="1" as="geometry" />
        </mxCell>
        <mxCell id="gDX20T1RS522bf6tZgBw-1" value="start" style="rounded=1;whiteSpace=wrap;html=1;" parent="1" vertex="1">
          <mxGeometry x="860" y="40" width="120" height="40" as="geometry" />
        </mxCell>
        <mxCell id="gDX20T1RS522bf6tZgBw-16" style="edgeStyle=orthogonalEdgeStyle;rounded=0;orthogonalLoop=1;jettySize=auto;html=1;" parent="1" source="gDX20T1RS522bf6tZgBw-5" target="gDX20T1RS522bf6tZgBw-6" edge="1">
          <mxGeometry relative="1" as="geometry" />
        </mxCell>
        <mxCell id="gDX20T1RS522bf6tZgBw-5" value="input name&amp;nbsp;&lt;br&gt;&quot;employee name&quot;" style="shape=parallelogram;perimeter=parallelogramPerimeter;whiteSpace=wrap;html=1;fixedSize=1;" parent="1" vertex="1">
          <mxGeometry x="855" y="200" width="120" height="60" as="geometry" />
        </mxCell>
        <mxCell id="gDX20T1RS522bf6tZgBw-17" style="edgeStyle=orthogonalEdgeStyle;rounded=0;orthogonalLoop=1;jettySize=auto;html=1;entryX=0.575;entryY=0.033;entryDx=0;entryDy=0;entryPerimeter=0;" parent="1" source="gDX20T1RS522bf6tZgBw-6" target="gDX20T1RS522bf6tZgBw-7" edge="1">
          <mxGeometry relative="1" as="geometry" />
        </mxCell>
        <mxCell id="gDX20T1RS522bf6tZgBw-6" value="input cars&lt;br&gt;&quot;cars sold &quot;" style="shape=parallelogram;perimeter=parallelogramPerimeter;whiteSpace=wrap;html=1;fixedSize=1;" parent="1" vertex="1">
          <mxGeometry x="855" y="280" width="120" height="60" as="geometry" />
        </mxCell>
        <mxCell id="gDX20T1RS522bf6tZgBw-18" style="edgeStyle=orthogonalEdgeStyle;rounded=0;orthogonalLoop=1;jettySize=auto;html=1;exitX=0.5;exitY=1;exitDx=0;exitDy=0;entryX=0.5;entryY=0;entryDx=0;entryDy=0;" parent="1" source="gDX20T1RS522bf6tZgBw-7" target="gDX20T1RS522bf6tZgBw-9" edge="1">
          <mxGeometry relative="1" as="geometry" />
        </mxCell>
        <mxCell id="gDX20T1RS522bf6tZgBw-7" value="total cars sold ==&amp;nbsp;&lt;br&gt;total cars sold + cars" style="rounded=0;whiteSpace=wrap;html=1;" parent="1" vertex="1">
          <mxGeometry x="825" y="360" width="160" height="60" as="geometry" />
        </mxCell>
        <mxCell id="gDX20T1RS522bf6tZgBw-8" value="While x != 1" style="rhombus;whiteSpace=wrap;html=1;" parent="1" vertex="1">
          <mxGeometry x="875" y="110" width="80" height="80" as="geometry" />
        </mxCell>
        <mxCell id="gDX20T1RS522bf6tZgBw-29" style="edgeStyle=orthogonalEdgeStyle;rounded=0;orthogonalLoop=1;jettySize=auto;html=1;entryX=0.5;entryY=0;entryDx=0;entryDy=0;" parent="1" source="gDX20T1RS522bf6tZgBw-9" target="gDX20T1RS522bf6tZgBw-27" edge="1">
          <mxGeometry relative="1" as="geometry" />
        </mxCell>
        <mxCell id="gDX20T1RS522bf6tZgBw-9" value="input employee ==&amp;nbsp;&lt;br&gt;&quot;are you the last employee to sign in" style="shape=parallelogram;perimeter=parallelogramPerimeter;whiteSpace=wrap;html=1;fixedSize=1;" parent="1" vertex="1">
          <mxGeometry x="795" y="440" width="230" height="60" as="geometry" />
        </mxCell>
        <mxCell id="gDX20T1RS522bf6tZgBw-12" style="edgeStyle=orthogonalEdgeStyle;rounded=0;orthogonalLoop=1;jettySize=auto;html=1;entryX=0;entryY=0.5;entryDx=0;entryDy=0;exitX=1;exitY=0.5;exitDx=0;exitDy=0;" parent="1" source="gDX20T1RS522bf6tZgBw-11" target="gDX20T1RS522bf6tZgBw-14" edge="1">
          <mxGeometry relative="1" as="geometry">
            <mxPoint x="1185" y="630" as="targetPoint" />
            <Array as="points">
              <mxPoint x="1095" y="685" />
              <mxPoint x="1095" y="670" />
            </Array>
          </mxGeometry>
        </mxCell>
        <mxCell id="gDX20T1RS522bf6tZgBw-11" value="does employee = yes&amp;nbsp;" style="rhombus;whiteSpace=wrap;html=1;" parent="1" vertex="1">
          <mxGeometry x="835" y="620" width="140" height="130" as="geometry" />
        </mxCell>
        <mxCell id="gDX20T1RS522bf6tZgBw-13" value="no" style="text;html=1;strokeColor=none;fillColor=none;align=center;verticalAlign=middle;whiteSpace=wrap;rounded=0;" parent="1" vertex="1">
          <mxGeometry x="1020" y="670" width="40" height="20" as="geometry" />
        </mxCell>
        <mxCell id="gDX20T1RS522bf6tZgBw-15" style="edgeStyle=orthogonalEdgeStyle;rounded=0;orthogonalLoop=1;jettySize=auto;html=1;entryX=1;entryY=0.5;entryDx=0;entryDy=0;" parent="1" source="gDX20T1RS522bf6tZgBw-14" target="gDX20T1RS522bf6tZgBw-8" edge="1">
          <mxGeometry relative="1" as="geometry">
            <mxPoint x="1295" y="70" as="targetPoint" />
            <Array as="points">
              <mxPoint x="1295" y="670" />
              <mxPoint x="1295" y="150" />
            </Array>
          </mxGeometry>
        </mxCell>
        <mxCell id="gDX20T1RS522bf6tZgBw-14" value="x=0" style="rounded=0;whiteSpace=wrap;html=1;" parent="1" vertex="1">
          <mxGeometry x="1125" y="640" width="120" height="60" as="geometry" />
        </mxCell>
        <mxCell id="gDX20T1RS522bf6tZgBw-22" value="" style="endArrow=classic;html=1;exitX=0.5;exitY=1;exitDx=0;exitDy=0;" parent="1" source="gDX20T1RS522bf6tZgBw-8" target="gDX20T1RS522bf6tZgBw-5" edge="1">
          <mxGeometry width="50" height="50" relative="1" as="geometry">
            <mxPoint x="905" y="350" as="sourcePoint" />
            <mxPoint x="955" y="300" as="targetPoint" />
          </mxGeometry>
        </mxCell>
        <mxCell id="gDX20T1RS522bf6tZgBw-23" value="" style="endArrow=classic;html=1;exitX=0.5;exitY=1;exitDx=0;exitDy=0;" parent="1" source="gDX20T1RS522bf6tZgBw-11" edge="1">
          <mxGeometry width="50" height="50" relative="1" as="geometry">
            <mxPoint x="905" y="750" as="sourcePoint" />
            <mxPoint x="905" y="800" as="targetPoint" />
          </mxGeometry>
        </mxCell>
        <mxCell id="gDX20T1RS522bf6tZgBw-25" value="yes" style="text;html=1;strokeColor=none;fillColor=none;align=center;verticalAlign=middle;whiteSpace=wrap;rounded=0;" parent="1" vertex="1">
          <mxGeometry x="900" y="770" width="40" height="20" as="geometry" />
        </mxCell>
        <mxCell id="gDX20T1RS522bf6tZgBw-30" style="edgeStyle=orthogonalEdgeStyle;rounded=0;orthogonalLoop=1;jettySize=auto;html=1;" parent="1" source="gDX20T1RS522bf6tZgBw-27" target="gDX20T1RS522bf6tZgBw-11" edge="1">
          <mxGeometry relative="1" as="geometry" />
        </mxCell>
        <mxCell id="gDX20T1RS522bf6tZgBw-27" value="dump employee values to text file" style="rounded=0;whiteSpace=wrap;html=1;" parent="1" vertex="1">
          <mxGeometry x="790" y="530" width="230" height="60" as="geometry" />
        </mxCell>
        <mxCell id="gDX20T1RS522bf6tZgBw-33" style="edgeStyle=orthogonalEdgeStyle;rounded=0;orthogonalLoop=1;jettySize=auto;html=1;entryX=0;entryY=0.5;entryDx=0;entryDy=0;" parent="1" source="gDX20T1RS522bf6tZgBw-32" target="gDX20T1RS522bf6tZgBw-8" edge="1">
          <mxGeometry relative="1" as="geometry">
            <mxPoint x="705" y="150" as="targetPoint" />
            <Array as="points">
              <mxPoint x="705" y="830" />
              <mxPoint x="705" y="150" />
            </Array>
          </mxGeometry>
        </mxCell>
        <mxCell id="gDX20T1RS522bf6tZgBw-32" value="x=1" style="rounded=0;whiteSpace=wrap;html=1;" parent="1" vertex="1">
          <mxGeometry x="845" y="800" width="120" height="60" as="geometry" />
        </mxCell>
        <mxCell id="UenuUdLPhSe_JLN5u1UB-11" style="edgeStyle=orthogonalEdgeStyle;rounded=0;orthogonalLoop=1;jettySize=auto;html=1;entryX=0.5;entryY=0;entryDx=0;entryDy=0;" edge="1" parent="1" source="gDX20T1RS522bf6tZgBw-36" target="UenuUdLPhSe_JLN5u1UB-1">
          <mxGeometry relative="1" as="geometry" />
        </mxCell>
        <mxCell id="gDX20T1RS522bf6tZgBw-36" value="pull all values from employee text file" style="rounded=0;whiteSpace=wrap;html=1;" parent="1" vertex="1">
          <mxGeometry x="845" y="890" width="120" height="60" as="geometry" />
        </mxCell>
        <mxCell id="gDX20T1RS522bf6tZgBw-37" value="" style="endArrow=classic;html=1;exitX=0.5;exitY=1;exitDx=0;exitDy=0;" parent="1" source="gDX20T1RS522bf6tZgBw-32" target="gDX20T1RS522bf6tZgBw-36" edge="1">
          <mxGeometry width="50" height="50" relative="1" as="geometry">
            <mxPoint x="915" y="970" as="sourcePoint" />
            <mxPoint x="965" y="920" as="targetPoint" />
          </mxGeometry>
        </mxCell>
        <mxCell id="UenuUdLPhSe_JLN5u1UB-12" style="edgeStyle=orthogonalEdgeStyle;rounded=0;orthogonalLoop=1;jettySize=auto;html=1;entryX=0.5;entryY=0;entryDx=0;entryDy=0;" edge="1" parent="1" source="UenuUdLPhSe_JLN5u1UB-1" target="UenuUdLPhSe_JLN5u1UB-2">
          <mxGeometry relative="1" as="geometry" />
        </mxCell>
        <mxCell id="UenuUdLPhSe_JLN5u1UB-1" value="counter =0" style="rounded=0;whiteSpace=wrap;html=1;" vertex="1" parent="1">
          <mxGeometry x="845" y="1000" width="120" height="60" as="geometry" />
        </mxCell>
        <mxCell id="UenuUdLPhSe_JLN5u1UB-13" style="edgeStyle=orthogonalEdgeStyle;rounded=0;orthogonalLoop=1;jettySize=auto;html=1;exitX=0.5;exitY=1;exitDx=0;exitDy=0;entryX=0.5;entryY=0;entryDx=0;entryDy=0;" edge="1" parent="1" source="UenuUdLPhSe_JLN5u1UB-2" target="UenuUdLPhSe_JLN5u1UB-3">
          <mxGeometry relative="1" as="geometry" />
        </mxCell>
        <mxCell id="UenuUdLPhSe_JLN5u1UB-2" value="counterr=1" style="rounded=0;whiteSpace=wrap;html=1;" vertex="1" parent="1">
          <mxGeometry x="845" y="1080" width="120" height="60" as="geometry" />
        </mxCell>
        <mxCell id="UenuUdLPhSe_JLN5u1UB-9" style="edgeStyle=orthogonalEdgeStyle;rounded=0;orthogonalLoop=1;jettySize=auto;html=1;entryX=0;entryY=0.5;entryDx=0;entryDy=0;" edge="1" parent="1" source="UenuUdLPhSe_JLN5u1UB-3" target="UenuUdLPhSe_JLN5u1UB-8">
          <mxGeometry relative="1" as="geometry" />
        </mxCell>
        <mxCell id="UenuUdLPhSe_JLN5u1UB-10" style="edgeStyle=orthogonalEdgeStyle;rounded=0;orthogonalLoop=1;jettySize=auto;html=1;exitX=0.5;exitY=1;exitDx=0;exitDy=0;entryX=0.5;entryY=0;entryDx=0;entryDy=0;" edge="1" parent="1" source="UenuUdLPhSe_JLN5u1UB-15" target="UenuUdLPhSe_JLN5u1UB-6">
          <mxGeometry relative="1" as="geometry" />
        </mxCell>
        <mxCell id="UenuUdLPhSe_JLN5u1UB-3" value="is employee(counter) &amp;gt; employee(counterr)" style="rhombus;whiteSpace=wrap;html=1;" vertex="1" parent="1">
          <mxGeometry x="815" y="1150" width="180" height="140" as="geometry" />
        </mxCell>
        <mxCell id="UenuUdLPhSe_JLN5u1UB-18" style="edgeStyle=orthogonalEdgeStyle;rounded=0;orthogonalLoop=1;jettySize=auto;html=1;entryX=0.061;entryY=0.986;entryDx=0;entryDy=0;entryPerimeter=0;" edge="1" parent="1" source="UenuUdLPhSe_JLN5u1UB-6" target="UenuUdLPhSe_JLN5u1UB-17">
          <mxGeometry relative="1" as="geometry">
            <mxPoint x="905" y="1440" as="targetPoint" />
            <Array as="points">
              <mxPoint x="905" y="1449" />
            </Array>
          </mxGeometry>
        </mxCell>
        <mxCell id="UenuUdLPhSe_JLN5u1UB-6" value="&#xa;&#xa;&lt;span style=&quot;color: rgb(0, 0, 0); font-family: helvetica; font-size: 12px; font-style: normal; font-weight: 400; letter-spacing: normal; text-align: center; text-indent: 0px; text-transform: none; word-spacing: 0px; background-color: rgb(248, 249, 250); display: inline; float: none;&quot;&gt;employee(Counter) == BestEmployee&lt;/span&gt;&#xa;&#xa;" style="rounded=0;whiteSpace=wrap;html=1;" vertex="1" parent="1">
          <mxGeometry x="845" y="1320" width="120" height="60" as="geometry" />
        </mxCell>
        <mxCell id="UenuUdLPhSe_JLN5u1UB-19" style="edgeStyle=orthogonalEdgeStyle;rounded=0;orthogonalLoop=1;jettySize=auto;html=1;entryX=0.572;entryY=0.002;entryDx=0;entryDy=0;entryPerimeter=0;" edge="1" parent="1" source="UenuUdLPhSe_JLN5u1UB-8" target="UenuUdLPhSe_JLN5u1UB-17">
          <mxGeometry relative="1" as="geometry" />
        </mxCell>
        <mxCell id="UenuUdLPhSe_JLN5u1UB-8" value="&lt;br&gt;&lt;span style=&quot;color: rgb(0 , 0 , 0) ; font-family: &amp;#34;helvetica&amp;#34; ; font-size: 12px ; font-style: normal ; font-weight: 400 ; letter-spacing: normal ; text-align: center ; text-indent: 0px ; text-transform: none ; word-spacing: 0px ; background-color: rgb(248 , 249 , 250) ; display: inline ; float: none&quot;&gt;employee(Counterr) == BestEmployee&lt;/span&gt;" style="rounded=0;whiteSpace=wrap;html=1;" vertex="1" parent="1">
          <mxGeometry x="1040" y="1190" width="120" height="60" as="geometry" />
        </mxCell>
        <mxCell id="UenuUdLPhSe_JLN5u1UB-14" value="no" style="text;html=1;strokeColor=none;fillColor=none;align=center;verticalAlign=middle;whiteSpace=wrap;rounded=0;" vertex="1" parent="1">
          <mxGeometry x="995" y="1200" width="40" height="20" as="geometry" />
        </mxCell>
        <mxCell id="UenuUdLPhSe_JLN5u1UB-15" value="yes" style="text;html=1;strokeColor=none;fillColor=none;align=center;verticalAlign=middle;whiteSpace=wrap;rounded=0;" vertex="1" parent="1">
          <mxGeometry x="885" y="1300" width="40" height="20" as="geometry" />
        </mxCell>
        <mxCell id="UenuUdLPhSe_JLN5u1UB-16" style="edgeStyle=orthogonalEdgeStyle;rounded=0;orthogonalLoop=1;jettySize=auto;html=1;exitX=0.5;exitY=1;exitDx=0;exitDy=0;entryX=0.5;entryY=0;entryDx=0;entryDy=0;" edge="1" parent="1" source="UenuUdLPhSe_JLN5u1UB-3" target="UenuUdLPhSe_JLN5u1UB-15">
          <mxGeometry relative="1" as="geometry">
            <mxPoint x="905" y="1290" as="sourcePoint" />
            <mxPoint x="905" y="1320" as="targetPoint" />
          </mxGeometry>
        </mxCell>
        <mxCell id="UenuUdLPhSe_JLN5u1UB-17" value="loop until all values have been compared" style="rounded=0;whiteSpace=wrap;html=1;" vertex="1" parent="1">
          <mxGeometry x="1030" y="1390" width="120" height="60" as="geometry" />
        </mxCell>
        <mxCell id="UenuUdLPhSe_JLN5u1UB-23" style="edgeStyle=orthogonalEdgeStyle;rounded=0;orthogonalLoop=1;jettySize=auto;html=1;exitX=0.5;exitY=1;exitDx=0;exitDy=0;entryX=0.5;entryY=0;entryDx=0;entryDy=0;" edge="1" parent="1" source="UenuUdLPhSe_JLN5u1UB-20" target="UenuUdLPhSe_JLN5u1UB-22">
          <mxGeometry relative="1" as="geometry" />
        </mxCell>
        <mxCell id="UenuUdLPhSe_JLN5u1UB-20" value="output&amp;nbsp;&lt;br&gt;bestemployee" style="shape=parallelogram;perimeter=parallelogramPerimeter;whiteSpace=wrap;html=1;fixedSize=1;" vertex="1" parent="1">
          <mxGeometry x="1020" y="1510" width="120" height="60" as="geometry" />
        </mxCell>
        <mxCell id="UenuUdLPhSe_JLN5u1UB-21" value="" style="endArrow=classic;html=1;exitX=0.5;exitY=1;exitDx=0;exitDy=0;entryX=0.5;entryY=0;entryDx=0;entryDy=0;" edge="1" parent="1" source="UenuUdLPhSe_JLN5u1UB-17" target="UenuUdLPhSe_JLN5u1UB-20">
          <mxGeometry width="50" height="50" relative="1" as="geometry">
            <mxPoint x="1050" y="1560" as="sourcePoint" />
            <mxPoint x="1100" y="1510" as="targetPoint" />
          </mxGeometry>
        </mxCell>
        <mxCell id="UenuUdLPhSe_JLN5u1UB-22" value="end" style="rounded=1;whiteSpace=wrap;html=1;" vertex="1" parent="1">
          <mxGeometry x="1045" y="1600" width="70" height="30" as="geometry" />
        </mxCell>
      </root>
    </mxGraphModel>
  </diagram>
</mxfile>
